# Blender v2.80 (sub 75) OBJ File: 'debris.blend'
# www.blender.org
mtllib asteroid.mtl
o Asteroid1
v 153.993576 -14.216524 -7.145983
v 177.217606 -7.905532 5.383153
v 152.050003 -5.410469 9.538150
v 137.943695 -5.238667 -1.537424
v 148.803711 -7.877229 -24.873356
v 165.981018 -8.476044 -20.059650
v 178.383667 11.532202 7.871544
v 149.502930 14.084822 2.725372
v 153.583084 14.724149 -9.271756
v 168.644714 14.874125 -14.845160
v 179.977707 14.070752 -2.696238
v 171.321106 27.209177 -4.954113
v 151.639679 -11.787121 3.891403
v 163.729111 -13.973257 -3.660727
v 166.665314 -8.967662 7.475998
v 173.252365 -9.138565 -5.950142
v 159.704102 -14.420504 -17.682825
v 143.607025 -11.922363 -4.942847
v 140.781311 -6.227370 4.889854
v 149.146500 -13.630981 -18.767876
v 142.099167 -7.436435 -12.436472
v 156.216675 -9.850748 -27.506390
v 183.735733 1.566755 3.346160
v 178.392319 2.156151 -8.065512
v 164.481384 1.005262 10.964001
v 179.759415 0.160979 9.405651
v 138.158463 3.613331 1.745455
v 146.680420 2.920394 7.790142
v 146.081573 2.616769 -17.644865
v 139.718353 3.753346 -5.707278
v 167.725220 1.786119 -21.258495
v 155.429794 1.568918 -25.984362
v 181.423431 12.805753 3.772924
v 161.533218 13.646319 6.637664
v 147.568237 14.404383 -3.046555
v 160.125366 14.362885 -16.234533
v 173.607437 14.932980 -10.369068
v 174.729904 22.768732 1.661389
v 176.862717 23.476883 -4.283552
v 163.392303 23.680973 -0.966724
v 163.930389 23.816832 -7.978238
v 171.380798 23.965603 -10.140919
vt 0.818181 0.000000
vt 0.772726 0.078731
vt 0.863635 0.078731
vt 0.727272 0.157461
vt 0.681818 0.078731
vt 0.636363 0.157461
vt 0.090909 0.000000
vt 0.045454 0.078731
vt 0.136363 0.078731
vt 0.272727 0.000000
vt 0.227273 0.078731
vt 0.318182 0.078731
vt 0.454545 0.000000
vt 0.409090 0.078731
vt 0.500000 0.078731
vt 0.681818 0.236191
vt 0.909090 0.157461
vt 0.818181 0.157461
vt 0.863635 0.236191
vt 0.181818 0.157461
vt 0.090909 0.157461
vt 0.136363 0.236191
vt 0.363636 0.157461
vt 0.272727 0.157461
vt 0.318182 0.236191
vt 0.545454 0.157461
vt 0.454545 0.157461
vt 0.500000 0.236191
vt 0.772726 0.236191
vt 0.954545 0.236191
vt 0.227273 0.236191
vt 0.409090 0.236191
vt 0.590909 0.236191
vt 0.818181 0.314921
vt 0.727272 0.314921
vt 0.772726 0.393651
vt 1.000000 0.314921
vt 0.909091 0.314921
vt 0.954545 0.393651
vt 0.272727 0.314921
vt 0.181818 0.314921
vt 0.227273 0.393651
vt 0.454545 0.314921
vt 0.363636 0.314921
vt 0.409090 0.393651
vt 0.636363 0.314921
vt 0.545454 0.314921
vt 0.590909 0.393651
vt 0.500000 0.393651
vt 0.545454 0.472382
vt 0.318182 0.393651
vt 0.363636 0.472382
vt 0.136363 0.393651
vt 0.181818 0.472382
vt 0.090909 0.314921
vt 0.863635 0.393651
vt 0.909090 0.472382
vt 0.681818 0.393651
vt 0.727272 0.472382
vt 0.045454 0.236191
vt 0.000000 0.157461
vt 0.590909 0.078731
vt 0.636363 0.000000
vn -0.0965 -0.9912 0.0909
vn 0.2059 -0.9704 0.1263
vn -0.1596 -0.8538 0.4955
vn 0.6002 -0.7992 -0.0326
vn 0.6588 -0.7083 -0.2535
vn -0.5425 -0.8383 0.0545
vn -0.4311 -0.8449 -0.3169
vn 0.2459 -0.9306 -0.2711
vn 0.7998 -0.5141 -0.3099
vn -0.1806 -0.3173 0.9310
vn 0.1078 -0.6832 0.7223
vn -0.0074 0.0089 0.9999
vn -0.9148 -0.1207 0.3853
vn -0.6007 0.1921 -0.7760
vn -0.8924 0.0777 -0.4444
vn -0.7167 0.4237 -0.5540
vn 0.6597 -0.4864 -0.5730
vn 0.4752 0.0024 -0.8799
vn 0.5935 0.1053 -0.7979
vn 0.7894 -0.4545 0.4126
vn -0.3746 0.2345 0.8970
vn -0.9526 0.0487 -0.3003
vn -0.9744 0.0986 -0.2021
vn -0.9373 0.0721 -0.3408
vn -0.5011 0.4269 -0.7528
vn 0.8436 -0.1287 -0.5214
vn 0.7120 0.3171 0.6266
vn 0.7117 0.3919 0.5830
vn 0.6674 0.6500 0.3633
vn -0.3066 0.5008 0.8094
vn -0.1361 0.4665 0.8740
vn -0.1403 0.6714 0.7277
vn -0.5522 0.6670 -0.5002
vn -0.6512 0.7453 -0.1432
vn -0.3911 0.8378 -0.3810
vn 0.4008 0.3807 -0.8333
vn -0.2401 0.6532 -0.7181
vn -0.1341 0.7307 -0.6694
vn 0.8992 0.1999 -0.3892
vn 0.7214 0.1930 -0.6651
vn 0.8023 0.1984 -0.5630
vn 0.5371 0.7179 -0.4428
vn 0.7029 0.1906 -0.6853
vn -0.1688 0.8348 -0.5240
vn -0.4738 0.8806 0.0086
vn -0.4124 0.9109 -0.0140
vn -0.5864 0.7739 0.2394
vn -0.0621 0.6360 0.7692
vn -0.0692 0.8114 0.5803
vn 0.0284 0.3262 0.9449
vn 0.6191 0.7223 0.3082
vn 0.5126 0.8115 0.2806
vn 0.9587 0.2286 -0.1695
vn 0.3148 0.2800 -0.9069
vn -0.7094 0.6354 -0.3050
vn -0.7622 0.6460 -0.0418
vn 0.7986 0.1541 0.5818
vn 0.8114 0.1454 0.5662
vn 0.9319 0.1136 -0.3445
vn -0.3080 0.1048 -0.9456
vn -0.5416 0.2734 0.7949
vn -0.4837 0.0346 0.8746
vn 0.1341 -0.1331 0.9820
vn 0.2168 -0.4895 0.8446
vn 0.4853 -0.7141 -0.5045
vn -0.2008 -0.8295 -0.5213
vn -0.5547 -0.6208 -0.5539
vn -0.7719 -0.5845 -0.2500
vn -0.7440 -0.6648 0.0675
vn -0.4827 -0.7651 0.4261
usemtl None
s 1
f 1/1/1 14/2/2 13/3/3
f 2/4/4 14/5/2 16/6/5
f 1/7/1 13/8/3 18/9/6
f 1/10/1 18/11/6 20/12/7
f 1/13/1 20/14/7 17/15/8
f 2/4/4 16/6/5 23/16/9
f 3/17/10 15/18/11 25/19/12
f 4/20/13 19/21/13 27/22/13
f 5/23/14 21/24/15 29/25/16
f 6/26/17 22/27/18 31/28/19
f 2/4/20 23/16/20 26/29/20
f 3/17/10 25/19/12 28/30/21
f 4/20/22 27/22/23 30/31/24
f 5/23/14 29/25/16 32/32/25
f 6/26/17 31/28/19 24/33/26
f 7/34/27 33/35/28 38/36/29
f 8/37/30 34/38/31 40/39/32
f 9/40/33 35/41/34 41/42/35
f 10/43/36 36/44/37 42/45/38
f 11/46/39 37/47/40 39/48/41
f 39/48/42 42/49/42 12/50/42
f 39/48/41 37/47/40 42/49/43
f 37/47/40 10/43/36 42/49/43
f 42/45/38 41/51/35 12/52/44
f 42/45/38 36/44/37 41/51/35
f 36/44/37 9/40/33 41/51/35
f 41/42/35 40/53/45 12/54/46
f 41/42/35 35/41/34 40/53/45
f 35/41/34 8/55/47 40/53/45
f 40/39/32 38/56/48 12/57/49
f 40/39/32 34/38/31 38/56/48
f 34/38/31 7/34/50 38/56/48
f 38/36/29 39/58/51 12/59/52
f 38/36/29 33/35/28 39/58/51
f 33/35/53 11/46/39 39/58/41
f 24/33/26 37/47/40 11/46/39
f 24/33/26 31/28/19 37/47/40
f 31/28/19 10/43/36 37/47/40
f 32/32/54 36/44/37 10/43/36
f 32/32/25 29/25/16 36/44/37
f 29/25/16 9/40/33 36/44/37
f 30/31/55 35/41/34 9/40/33
f 30/31/55 27/22/56 35/41/34
f 27/22/56 8/55/47 35/41/34
f 28/30/21 34/38/31 8/37/30
f 28/30/21 25/19/12 34/38/31
f 25/19/12 7/34/50 34/38/31
f 26/29/57 33/35/28 7/34/27
f 26/29/57 23/16/58 33/35/28
f 23/16/59 11/46/39 33/35/53
f 31/28/19 32/32/54 10/43/36
f 31/28/19 22/27/18 32/32/54
f 22/27/60 5/23/14 32/32/25
f 29/25/16 30/31/55 9/40/33
f 29/25/16 21/24/15 30/31/24
f 21/24/15 4/20/22 30/31/24
f 27/22/61 28/60/21 8/55/30
f 27/22/61 19/21/62 28/60/21
f 19/21/62 3/61/10 28/60/21
f 25/19/12 26/29/63 7/34/50
f 25/19/12 15/18/11 26/29/63
f 15/18/11 2/4/64 26/29/63
f 23/16/59 24/33/26 11/46/39
f 23/16/9 16/6/5 24/33/26
f 16/6/5 6/26/17 24/33/26
f 17/15/8 22/27/65 6/26/17
f 17/15/8 20/14/7 22/27/66
f 20/14/7 5/23/67 22/27/66
f 20/12/7 21/24/68 5/23/67
f 20/12/7 18/11/6 21/24/68
f 18/11/6 4/20/69 21/24/68
f 18/9/6 19/21/70 4/20/69
f 18/9/6 13/8/3 19/21/70
f 13/8/3 3/61/10 19/21/70
f 16/6/5 17/62/8 6/26/17
f 16/6/5 14/5/2 17/62/8
f 14/5/2 1/63/1 17/62/8
f 13/3/3 15/18/11 3/17/10
f 13/3/3 14/2/2 15/18/11
f 14/2/2 2/4/4 15/18/11
